<svg width="1107" height="7" viewBox="0 0 1107 7" fill="none" xmlns="http://www.w3.org/2000/svg">
<path d="M421.188 7.40147e-05C427.882 -0.0024164 434.157 0.0571354 442.083 0.132526C442.087 0.132526 442.091 0.132526 442.096 0.132526C443.228 0.143296 444.395 0.154577 445.601 0.165852C455.31 0.256652 467.927 0.363211 486.951 0.424347C507.971 0.491911 524.66 0.736517 534.851 0.971242C536.752 1.01502 538.719 1.03907 543.681 1.06097C546.935 1.07532 551.335 1.08828 557.684 1.10711C561.061 1.11713 564.992 1.12865 569.593 1.143C584.824 1.19051 608.694 1.17572 630.689 1.16181C644.039 1.15336 656.701 1.14529 666.318 1.15198C680.382 1.16177 693.954 1.20568 708.707 1.25367C722.218 1.29763 736.722 1.34506 753.503 1.37203C766.379 1.39273 778.889 1.57044 791.602 1.76896C793.22 1.79422 794.845 1.81976 796.471 1.84543C807.689 2.02256 819.157 2.2039 831.559 2.30773C853.664 2.4928 871.304 2.41633 890.835 2.33166C898.474 2.29855 906.403 2.26412 915.003 2.24365C928.603 2.21128 948.153 2.21782 967.784 2.22699C969.457 2.22777 971.131 2.22833 972.801 2.22913C972.81 2.22913 972.818 2.22913 972.827 2.22913C990.796 2.23775 1008.43 2.2462 1021.37 2.22742C1041.93 2.19758 1049.67 2.12706 1056.12 2.06806C1058.55 2.04588 1060.79 2.02517 1063.47 2.0091C1073.11 1.95122 1087.67 1.96197 1102.42 1.97278C1102.47 1.97278 1102.53 1.97278 1102.59 1.97278C1105.04 1.97458 1107.01 2.17223 1107 2.41414C1106.99 2.65608 1104.99 2.85089 1102.54 2.84909C1094.73 2.84336 1087.1 2.83782 1080.28 2.84183C1079.92 3.04969 1078.08 3.20704 1075.88 3.20542C1070.37 3.20142 1053.47 3.35802 1027.03 3.61388C1028.84 3.65176 1030.36 3.68863 1031.68 3.72368C1033.25 3.76482 1034.44 3.8002 1035.47 3.8305C1037.61 3.89366 1039.04 3.93533 1041.57 3.96594C1047.43 4.00073 1056.64 4.00797 1066.33 4.01508C1068.78 4.01693 1070.75 4.21419 1070.74 4.45601C1070.73 4.69788 1068.73 4.89266 1066.29 4.89095C1066.24 4.89095 1066.19 4.89095 1066.14 4.89095C1056.54 4.88392 1047.04 4.87677 1040.92 4.83968C1039.36 4.83024 1038.02 4.81907 1037.01 4.80892C1036.2 4.8008 1035.2 4.78978 1034.64 4.77559C1034.57 4.7737 1034.43 4.76989 1034.26 4.76406C1034.25 4.76391 1034.25 4.76377 1034.25 4.76363C1034.15 4.7604 1033.67 4.74408 1033.16 4.70851C1033.05 4.70133 1032.83 4.68529 1032.57 4.65938C1032.5 4.65738 1032.43 4.65539 1032.36 4.6534C1031.42 4.62572 1030.46 4.59751 1029.42 4.57008C1025.36 4.463 1018.93 4.32804 1005.53 4.18512C993.206 4.05368 972.375 3.99474 946.383 3.9937C948.139 4.01182 949.899 4.02939 951.657 4.04626C956.083 4.08865 960.529 4.12731 964.976 4.16418C966.68 4.17826 968.361 4.19205 970.073 4.20562C972.83 4.22757 975.595 4.24911 978.359 4.27014C980.226 4.28438 982.097 4.29837 983.966 4.31244C983.971 4.31244 983.975 4.31244 983.979 4.31244C986.573 4.33198 989.174 4.35163 991.796 4.37183C992.713 4.37935 993.619 4.38657 994.519 4.39362C998.102 4.42168 1001.62 4.44891 1005.67 4.50172C1006.16 4.51046 1006.7 4.52178 1007.1 4.5312C1007.53 4.54113 1007.94 4.55124 1008.33 4.56153C1008.68 4.57061 1009.01 4.57985 1009.32 4.58845C1009.36 4.58959 1009.41 4.59073 1009.45 4.59187C1009.8 4.60149 1010.14 4.61038 1010.46 4.61879C1010.78 4.62718 1011.1 4.63527 1011.4 4.64229C1011.41 4.64229 1011.41 4.64229 1011.41 4.64229C1011.73 4.64948 1011.97 4.65489 1012.31 4.66109C1012.74 4.66885 1013.11 4.67482 1013.55 4.68074C1013.98 4.6865 1014.43 4.69163 1014.88 4.69612C1015.33 4.7006 1015.8 4.70452 1016.26 4.70808C1016.73 4.71165 1017.21 4.71496 1017.69 4.71791C1018.17 4.72086 1018.65 4.72343 1019.14 4.72603C1019.63 4.72863 1020.12 4.73123 1020.62 4.73372C1021.76 4.7395 1022.85 4.78804 1023.66 4.87044C1024.46 4.95286 1024.91 5.06185 1024.9 5.17465C1024.9 5.28747 1024.44 5.3959 1023.63 5.47715C1022.82 5.55836 1021.72 5.60549 1020.57 5.6096C1020.26 5.6107 1019.95 5.61195 1019.64 5.61302C1019.45 5.61365 1019.26 5.61412 1019.08 5.61473C1018.57 5.61636 1018.06 5.61818 1017.55 5.61943C1017.04 5.62066 1016.52 5.62147 1016 5.62199C1015.48 5.6225 1014.95 5.62267 1014.41 5.62199C1013.87 5.62131 1013.32 5.61986 1012.77 5.61729C1012.22 5.61486 1011.6 5.61063 1011.05 5.60533C1010.64 5.6016 1010.14 5.59524 1009.73 5.58952C1009.29 5.58353 1008.86 5.57683 1008.45 5.56986C1008.04 5.56288 1007.64 5.55547 1007.26 5.5485C1007.21 5.54779 1007.17 5.54708 1007.13 5.54636C1006.8 5.54019 1006.47 5.53418 1006.16 5.52885C1005.82 5.52288 1005.49 5.5178 1005.18 5.51346C1004.84 5.50859 1004.63 5.50666 1004.38 5.50449C1001.02 5.49041 996.867 5.49331 992.906 5.49595C992.409 5.49628 991.914 5.49651 991.424 5.4968C988.823 5.49886 986.227 5.50145 983.633 5.50406C981.747 5.50596 979.86 5.50793 977.97 5.50962C975.189 5.51213 972.4 5.51412 969.613 5.5156C967.882 5.51646 966.183 5.51701 964.457 5.51731C959.949 5.51815 955.426 5.51697 950.897 5.51175C946.375 5.50652 941.824 5.49739 937.27 5.48184C932.733 5.46634 928.021 5.44316 923.47 5.40792C920.124 5.38159 916.694 5.33568 913.521 5.28829C911.815 5.26277 910.145 5.23687 908.5 5.21096C908.494 5.21082 908.488 5.21067 908.483 5.21053C907.038 5.18779 905.612 5.16527 904.196 5.14388C901.161 5.09781 898.179 5.05674 895.197 5.02211C892.221 4.98747 889.256 4.95921 886.27 4.93751C883.307 4.91602 880.293 4.90049 877.309 4.89094C874.31 4.88131 871.366 4.8774 868.272 4.87769C864.204 4.87854 860.165 4.88637 856.018 4.89564C851.901 4.9051 847.751 4.91696 843.59 4.92896C842.135 4.93317 840.678 4.93708 839.219 4.94135C839.213 4.94135 839.208 4.94135 839.202 4.94135C836.503 4.94926 833.798 4.95722 831.09 4.96485C826.909 4.97662 822.718 4.98781 818.51 4.99689C814.303 5.00593 810.071 5.01303 805.816 5.01569C801.561 5.01813 797.191 5.01665 792.801 5.00245C788.885 4.99017 784.938 4.97381 781.078 4.95758C780.059 4.95331 779.04 4.94904 778.021 4.94476C773.185 4.92478 768.504 4.90883 763.875 4.90588C759.248 4.90258 754.626 4.91162 749.96 4.93066C745.309 4.94963 740.599 4.97802 735.852 5.01227C731.083 5.04667 726.376 5.08633 721.574 5.12976C716.808 5.17303 712.02 5.21948 707.174 5.26862C704.48 5.29583 701.614 5.32084 698.906 5.34211C696.171 5.36359 693.454 5.38257 690.772 5.40021C689.684 5.40739 688.601 5.41421 687.525 5.42115C685.956 5.43126 684.402 5.44113 682.871 5.45148C680.289 5.46895 677.769 5.48764 675.321 5.50959C672.874 5.53153 670.499 5.55704 668.205 5.58821C665.831 5.62059 663.874 5.65351 661.533 5.70057C655.832 5.79133 652.3 5.8192 648.375 5.85054C647.602 5.85671 646.812 5.86328 645.989 5.87019C641.282 5.90534 636.58 5.93156 631.939 5.95137C627.254 5.97122 622.642 5.9846 617.97 5.99239C613.344 6.00014 608.684 6.00198 604.043 5.9988C599.409 5.99562 594.783 5.98724 590.145 5.97359C585.511 5.95998 580.781 5.94065 576.24 5.91719C573.615 5.90368 570.827 5.88567 568.237 5.8672C566.369 5.8539 564.528 5.83992 562.722 5.82618C561.985 5.82057 561.252 5.81498 560.526 5.80952C558.024 5.79069 555.591 5.77324 553.242 5.75995C550.892 5.74663 548.617 5.73728 546.392 5.73389C544.163 5.73046 541.982 5.733 539.8 5.74158C537.539 5.75077 535.66 5.76308 533.259 5.78559C531.695 5.80045 530.163 5.81544 528.635 5.83045C526.348 5.85292 524.077 5.87585 521.79 5.89966C519.505 5.92345 517.25 5.94776 514.982 5.97315C514.254 5.98131 513.484 5.98994 512.753 5.99836C510.494 6.02438 508.261 6.05118 506.03 6.07954C503.803 6.10784 501.597 6.13742 499.4 6.16883C497.194 6.20038 495.025 6.23323 492.812 6.26881C489.052 6.32948 485.453 6.35763 482.302 6.37648C479.112 6.39512 476.132 6.40546 473.231 6.41536C472.688 6.41721 472.144 6.41906 471.601 6.42091C469.261 6.42867 466.959 6.43599 464.692 6.44484C461.898 6.45571 459.155 6.46868 456.403 6.48415C453.675 6.49943 450.919 6.51735 448.206 6.53841C445.468 6.55972 442.848 6.58275 440.026 6.61104C437.235 6.6388 434.401 6.67502 431.294 6.71444C428.215 6.75357 424.984 6.79379 421.712 6.82894C418.443 6.86422 415.123 6.8947 411.826 6.91867C408.523 6.94276 405.208 6.961 401.94 6.97378C398.655 6.98667 395.389 6.99421 392.139 6.99771C388.897 7.00122 385.548 7.00061 382.414 6.99642C377.338 6.98965 372.286 6.98009 367.224 6.9695C362.19 6.95887 357.141 6.94701 352.102 6.93447C347.072 6.92192 342.037 6.90882 337.009 6.89516C331.98 6.88149 326.951 6.86746 321.93 6.85329C320.819 6.85015 319.708 6.84702 318.598 6.84389C314.687 6.83284 310.777 6.82177 306.883 6.81099C306.857 6.81084 306.83 6.8107 306.803 6.81056C301.792 6.79684 296.871 6.78349 291.901 6.77211C290.076 6.76803 288.323 6.7642 286.542 6.761C284.758 6.75781 283.008 6.75522 281.242 6.7533C279.474 6.7514 277.716 6.75034 275.985 6.75031C274.235 6.75035 272.529 6.75134 270.807 6.75416C269.229 6.75663 267.663 6.76108 265.951 6.76569C265.795 6.76612 265.639 6.76655 265.482 6.76698C263.609 6.77206 261.479 6.77529 259.499 6.77296C254.253 6.76606 249.141 6.7628 243.937 6.76313C238.73 6.76344 233.535 6.76722 228.296 6.77253C226.25 6.77457 224.195 6.77709 222.139 6.77936C218.94 6.78289 215.73 6.78643 212.511 6.78919C207.213 6.79377 201.904 6.79584 196.561 6.79303C191.238 6.79023 185.881 6.78233 180.548 6.76868C175.219 6.75508 169.844 6.73581 164.539 6.71142C158.628 6.68413 152.752 6.654 146.849 6.62255C140.956 6.59107 135.06 6.55809 129.189 6.52428C123.297 6.49042 117.42 6.45566 111.542 6.42003C105.659 6.38439 99.7811 6.34791 93.8985 6.31065C90.3779 6.28834 86.8583 6.26562 83.3371 6.24271C81.4741 6.26327 79.688 6.28342 77.9698 6.30253C65.2742 6.44373 56.0946 6.54557 43.9841 6.61571C42.8243 6.62633 41.8806 6.64146 40.7325 6.65971C40.5135 6.6632 40.2811 6.66668 40.0442 6.6704C38.5437 6.6939 36.8206 6.7185 34.4236 6.73406C29.6417 6.76509 22.312 6.75834 12.8404 6.55375C10.4478 6.50207 8.92535 6.26878 9.44103 6.0325C9.80355 5.86676 11.0743 5.74361 12.6251 5.70265C9.76 5.67454 6.90264 5.64513 4.05264 5.61592C2.91506 5.60422 1.84709 5.54984 1.08818 5.46339C0.329714 5.3769 -0.0583844 5.26582 0.007128 5.1532C0.0726618 5.04055 0.588955 4.93488 1.44291 4.85796C2.29655 4.78113 3.4166 4.73951 4.55939 4.74132C7.591 4.74634 10.6124 4.75142 13.6343 4.75499C16.6588 4.75862 19.6691 4.76073 22.6882 4.76183C25.7065 4.76294 28.7237 4.7628 31.7505 4.76183C34.7654 4.76082 37.7864 4.7592 40.8128 4.75671C43.8584 4.75427 46.8466 4.75086 49.8835 4.74731C51.7031 4.74513 53.5444 4.74299 55.3521 4.74047C56.0259 4.73961 56.6833 4.73842 57.3411 4.73748C57.8787 4.73671 58.4191 4.73609 58.9753 4.73535C64.8268 4.72676 70.7344 4.71715 76.589 4.70672C82.4712 4.69634 88.3476 4.68537 94.2237 4.67382C100.103 4.66228 105.977 4.64999 111.854 4.63751C117.728 4.62502 123.599 4.6121 129.48 4.59863C135.34 4.58511 141.224 4.57128 147.094 4.55633C151.634 4.54478 156.136 4.53238 160.645 4.51916C162.42 4.49656 164.177 4.47521 165.911 4.45465C170.958 4.3948 176.012 4.31626 180.991 4.23845C172.13 4.27714 165.011 4.33757 158.234 4.39526C157.325 4.40299 156.423 4.41076 155.523 4.41833C146.337 4.49561 137.463 4.56103 125.528 4.5465C91.582 4.50518 71.8989 4.47502 59.6341 4.41875C47.3715 4.36248 42.1027 4.27907 37.1853 4.11326C30.237 3.87893 16.8262 3.74564 10.0871 3.74068C7.6391 3.73889 5.66312 3.5412 5.67423 3.29933C5.68605 3.05739 7.68089 2.86258 10.1294 2.86438C17.2452 2.8696 31.757 3.00508 40.0273 3.28395C43.7109 3.40817 47.9468 3.48831 60.0226 3.54372C72.0997 3.59913 91.6012 3.62879 125.612 3.6702C137.118 3.6842 145.658 3.6219 154.746 3.54544C155.637 3.53794 156.535 3.53008 157.44 3.52237C157.446 3.52237 157.451 3.52237 157.457 3.52237C165.805 3.45128 174.895 3.3738 187.152 3.3395C215.404 3.26046 253.408 3.10722 262.429 3.02078C264.2 3.00381 265.911 2.98476 267.716 2.96481C274.645 2.88822 283.011 2.79586 301.862 2.73452C305.986 2.7211 310.815 2.71331 316.085 2.70974C323.993 2.59183 331.672 2.48245 338.348 2.41749C344.11 2.36144 349.424 2.25831 354.572 2.14533C356.055 2.1128 357.546 2.07879 359.036 2.04493C362.628 1.96325 366.222 1.88162 369.724 1.81848C372.516 1.76815 375.439 1.70768 378.529 1.64373C389.784 1.4108 403.271 1.13169 420.846 1.12804C439.477 1.12416 455.428 1.17455 469.185 1.22375C459.082 1.16683 451.283 1.09864 444.786 1.03789C443.56 1.02643 442.386 1.01529 441.255 1.00456C433.27 0.92875 427.465 0.873636 421.243 0.875953C391.525 0.887022 380.379 0.961294 367.803 1.17588C364.491 1.23238 360.839 1.30765 356.903 1.38866C349.038 1.55056 340.042 1.73568 330.375 1.84155C321.372 1.94015 311.303 2.08571 300.634 2.23975C300.629 2.23975 300.625 2.23975 300.621 2.23975C298.536 2.26985 296.427 2.30028 294.299 2.33076C281.327 2.51661 267.683 2.7035 254.402 2.82125C252.981 2.83384 251.279 2.85121 249.326 2.87123C238.049 2.98684 218.253 3.1898 194.078 3.05965C188.768 3.03106 183.25 2.97049 176.954 2.90114C175.036 2.88001 173.045 2.85782 170.966 2.83576C161.991 2.74056 151.086 2.63941 136.566 2.57855C124.584 2.52832 109.98 2.50424 94.8149 2.479C87.3452 2.46657 79.7394 2.45365 72.2436 2.43755C49.6015 2.38893 28.8491 2.31182 8.13616 2.2346C8.13194 2.2346 8.12772 2.2346 8.12349 2.2346C5.6765 2.22548 3.75975 2.02176 3.84572 1.78C3.93259 1.53835 5.98591 1.34967 8.43176 1.35872C29.157 1.43598 49.8459 1.51322 72.4125 1.56167C79.7944 1.57752 87.3406 1.5903 94.7811 1.60269C110.02 1.62807 124.827 1.6524 136.921 1.7031C151.688 1.765 162.792 1.86807 171.891 1.96459C174.082 1.98783 176.143 2.01056 178.098 2.03209C184.325 2.10064 189.502 2.15794 194.538 2.18505C217.946 2.31107 236.994 2.11618 248.312 2.00048C250.32 1.97996 252.084 1.9621 253.587 1.94878C266.608 1.83335 280.043 1.64954 293.003 1.46385C295.105 1.43372 297.198 1.40368 299.274 1.3737C299.278 1.37356 299.282 1.37341 299.286 1.37327C309.953 1.21924 320.204 1.07123 329.374 0.970797C338.683 0.868852 346.801 0.70094 354.395 0.543968C358.47 0.459738 362.394 0.378956 366.27 0.312822C379.612 0.0851663 391.375 0.0111769 421.188 7.40147e-05ZM17.0549 5.74495C22.9439 5.85474 27.7422 5.8779 31.3155 5.87057C28.2808 5.84563 25.2534 5.81946 22.2237 5.79238C20.4993 5.77697 18.7769 5.76117 17.0549 5.74495ZM316.807 3.58519C315.853 3.59944 314.892 3.61385 313.927 3.62834C316.59 3.62148 319.254 3.6151 321.913 3.60869C325.178 3.60083 328.442 3.59339 331.705 3.58604C326.517 3.58317 321.489 3.58234 316.807 3.58519ZM420.888 2.00434C404.314 2.00779 391.927 2.26334 380.758 2.49398C377.542 2.56039 374.423 2.62463 371.337 2.68026C370.057 2.70333 368.779 2.72883 367.49 2.75588C374.996 2.76962 381.896 2.78405 387.545 2.79605C404.399 2.83187 413.992 2.90651 422.421 2.97208C424.86 2.99105 427.204 3.00919 429.596 3.02549C431.575 2.99608 433.63 2.96692 435.706 2.94132C438.614 2.90514 441.757 2.87042 444.748 2.84092C447.75 2.81122 450.801 2.78467 453.797 2.7623C456.818 2.73974 459.812 2.72092 462.792 2.70462C465.596 2.68922 468.39 2.67621 471.094 2.66361C471.249 2.66289 471.404 2.66218 471.559 2.66147C474.417 2.64805 477.197 2.63521 479.751 2.61746C482.351 2.59923 484.513 2.57774 486.432 2.54526C488.828 2.5048 491.285 2.46597 493.716 2.4299C496.149 2.39375 498.572 2.36011 500.988 2.32864C503.409 2.2971 505.806 2.26765 508.209 2.23977C508.986 2.23075 509.799 2.22148 510.57 2.21285C510.925 2.20887 511.28 2.20479 511.634 2.20089C506.932 2.19787 502.051 2.19316 497.006 2.18593C489.717 2.17549 481.936 2.14686 473.353 2.11543C458.711 2.06182 441.735 2.00001 420.888 2.00434ZM582.899 2.12271C580.855 2.12499 577.862 2.13183 574.001 2.14065C573.089 2.14274 572.126 2.14521 571.117 2.14749C571.141 2.1477 571.165 2.1477 571.189 2.14791C573.69 2.17024 575.998 2.1897 578.49 2.20773C582.932 2.23971 587.248 2.26713 591.607 2.29062C595.982 2.31415 600.346 2.33343 604.714 2.34873C609.089 2.36404 613.477 2.37503 617.826 2.38163C622.218 2.3882 626.547 2.39074 630.917 2.38761C632.31 2.38662 633.706 2.38504 635.102 2.38291C631.985 2.36086 628.749 2.34267 625.33 2.32352C622.6 2.30823 619.753 2.29222 616.758 2.2731C615.612 2.26579 614.225 2.25458 612.607 2.24149C606.194 2.1896 596.132 2.10796 582.899 2.12271ZM669.966 2.14151C670.98 2.13571 671.989 2.13046 672.986 2.12613C675.823 2.11382 678.589 2.10678 681.3 2.10135C683.205 2.09757 685.087 2.09486 686.942 2.09195C687.725 2.09073 688.507 2.08938 689.282 2.08811C690.579 2.08598 691.867 2.08344 693.146 2.08084C684.178 2.05445 675.411 2.03422 666.275 2.02786C666.155 2.02778 666.034 2.02794 665.912 2.02786C667.295 2.06654 668.646 2.10445 669.966 2.14151Z" fill="#929292"/>
</svg>
