<svg width="26" height="26" viewBox="0 0 26 26" fill="none" xmlns="http://www.w3.org/2000/svg">
<g clip-path="url(#clip0_785_429)">
<path d="M5.67734 3.1582C8.64297 5.37734 11.832 9.88672 13 12.309C14.168 9.8918 17.357 5.38242 20.3227 3.1582C22.4605 1.55352 25.9238 0.314453 25.9238 4.26523C25.9238 5.05234 25.4719 10.8922 25.2078 11.8418C24.2836 15.1324 20.9219 15.9754 17.9309 15.4625C23.1562 16.3512 24.4867 19.2965 21.6125 22.2418C16.1586 27.8379 13.777 20.8402 13.1676 19.0477C13.0812 18.7988 13.0355 18.6516 13 18.6516C12.9645 18.6516 12.9187 18.8039 12.8324 19.0477C12.223 20.8402 9.83633 27.8379 4.3875 22.2418C1.51836 19.2965 2.84375 16.3512 8.06914 15.4625C5.07812 15.9754 1.71641 15.1324 0.797266 11.8367C0.528125 10.8871 0.0761719 5.04727 0.0761719 4.26016C0.0761719 0.309375 3.53945 1.54844 5.67734 3.15313V3.1582Z" fill="white"/>
</g>
<defs>
<clipPath id="clip0_785_429">
<rect width="26" height="26" fill="white"/>
</clipPath>
</defs>
</svg>
