<svg width="30" height="30" viewBox="0 0 30 30" fill="none" xmlns="http://www.w3.org/2000/svg">
<path d="M9.5723 2.45508H19.8811C23.8082 2.45508 26.999 5.64588 26.999 9.57303V19.8818C26.999 21.7696 26.2491 23.5801 24.9142 24.9149C23.5793 26.2498 21.7689 26.9997 19.8811 26.9997H9.5723C5.64515 26.9997 2.45435 23.8089 2.45435 19.8818V9.57303C2.45435 7.68523 3.20427 5.87475 4.53915 4.53988C5.87402 3.205 7.6845 2.45508 9.5723 2.45508ZM9.32685 4.90954C8.15512 4.90954 7.03137 5.37502 6.20283 6.20356C5.37428 7.0321 4.90881 8.15585 4.90881 9.32758V20.1272C4.90881 22.5694 6.88466 24.5453 9.32685 24.5453H20.1265C21.2982 24.5453 22.422 24.0798 23.2505 23.2513C24.0791 22.4227 24.5445 21.299 24.5445 20.1272V9.32758C24.5445 6.88539 22.5687 4.90954 20.1265 4.90954H9.32685ZM21.1697 6.75039C21.5765 6.75039 21.9667 6.91202 22.2544 7.19971C22.5421 7.48739 22.7037 7.87758 22.7037 8.28444C22.7037 8.69129 22.5421 9.08148 22.2544 9.36917C21.9667 9.65686 21.5765 9.81848 21.1697 9.81848C20.7628 9.81848 20.3726 9.65686 20.0849 9.36917C19.7972 9.08148 19.6356 8.69129 19.6356 8.28444C19.6356 7.87758 19.7972 7.48739 20.0849 7.19971C20.3726 6.91202 20.7628 6.75039 21.1697 6.75039ZM14.7267 8.59124C16.3541 8.59124 17.9148 9.23773 19.0656 10.3885C20.2164 11.5392 20.8628 13.1 20.8628 14.7274C20.8628 16.3548 20.2164 17.9156 19.0656 19.0663C17.9148 20.2171 16.3541 20.8636 14.7267 20.8636C13.0993 20.8636 11.5385 20.2171 10.3878 19.0663C9.237 17.9156 8.59051 16.3548 8.59051 14.7274C8.59051 13.1 9.237 11.5392 10.3878 10.3885C11.5385 9.23773 13.0993 8.59124 14.7267 8.59124ZM14.7267 11.0457C13.7502 11.0457 12.8138 11.4336 12.1233 12.1241C11.4329 12.8145 11.045 13.751 11.045 14.7274C11.045 15.7039 11.4329 16.6403 12.1233 17.3308C12.8138 18.0212 13.7502 18.4091 14.7267 18.4091C15.7031 18.4091 16.6396 18.0212 17.33 17.3308C18.0205 16.6403 18.4084 15.7039 18.4084 14.7274C18.4084 13.751 18.0205 12.8145 17.33 12.1241C16.6396 11.4336 15.7031 11.0457 14.7267 11.0457Z" fill="#F5EFEF"/>
</svg>
