<svg width="30" height="30" viewBox="0 0 30 30" fill="none" xmlns="http://www.w3.org/2000/svg">
<path d="M23.3186 3.68164C23.9696 3.68164 24.5939 3.94024 25.0542 4.40054C25.5145 4.86084 25.7731 5.48514 25.7731 6.13611V23.3174C25.7731 23.9683 25.5145 24.5926 25.0542 25.0529C24.5939 25.5132 23.9696 25.7718 23.3186 25.7718H6.13733C5.48636 25.7718 4.86206 25.5132 4.40176 25.0529C3.94146 24.5926 3.68286 23.9683 3.68286 23.3174V6.13611C3.68286 5.48514 3.94146 4.86084 4.40176 4.40054C4.86206 3.94024 5.48636 3.68164 6.13733 3.68164H23.3186ZM22.705 22.7038V16.1994C22.705 15.1383 22.2835 14.1207 21.5332 13.3704C20.7829 12.6201 19.7653 12.1986 18.7042 12.1986C17.661 12.1986 16.4461 12.8368 15.857 13.794V12.4318H12.433V22.7038H15.857V16.6535C15.857 15.7085 16.6179 14.9354 17.5629 14.9354C18.0185 14.9354 18.4556 15.1164 18.7778 15.4386C19.1 15.7608 19.281 16.1978 19.281 16.6535V22.7038H22.705ZM8.44453 10.5051C8.99134 10.5051 9.51575 10.2878 9.90241 9.90119C10.2891 9.51453 10.5063 8.99012 10.5063 8.44331C10.5063 7.30198 9.58585 6.36928 8.44453 6.36928C7.89446 6.36928 7.36692 6.58779 6.97797 6.97675C6.58901 7.3657 6.3705 7.89324 6.3705 8.44331C6.3705 9.58463 7.3032 10.5051 8.44453 10.5051ZM10.1504 22.7038V12.4318H6.75094V22.7038H10.1504Z" fill="#F5EFEF"/>
</svg>
