<svg width="30" height="30" viewBox="0 0 30 30" fill="none" xmlns="http://www.w3.org/2000/svg">
<path d="M20.3718 7.14244C19.5331 6.18462 19.0708 4.95477 19.0709 3.68164H15.2787V18.8993C15.2501 19.723 14.9026 20.5034 14.3096 21.0758C13.7166 21.6482 12.9244 21.9679 12.1002 21.9674C10.3575 21.9674 8.9094 20.5438 8.9094 18.7766C8.9094 16.6658 10.9466 15.0826 13.0452 15.7331V11.855C8.81123 11.2905 5.10498 14.5795 5.10498 18.7766C5.10498 22.8633 8.49214 25.7718 12.0879 25.7718C15.9415 25.7718 19.0709 22.6424 19.0709 18.7766V11.0573C20.6086 12.1616 22.4548 12.7541 24.348 12.7509V8.95874C24.348 8.95874 22.0408 9.0692 20.3718 7.14244Z" fill="#F5EFEF"/>
</svg>
