<svg width="30" height="30" viewBox="0 0 30 30" fill="none" xmlns="http://www.w3.org/2000/svg">
<path d="M12.2708 18.4066L18.6393 14.7253L12.2708 11.0441V18.4066ZM26.4559 8.79851C26.6154 9.37524 26.7258 10.1483 26.7994 11.13C26.8853 12.1116 26.9221 12.9583 26.9221 13.6946L26.9958 14.7253C26.9958 17.4126 26.7994 19.3882 26.4559 20.6521C26.1491 21.7565 25.4374 22.4682 24.333 22.775C23.7563 22.9345 22.701 23.045 21.0812 23.1186C19.486 23.2045 18.0258 23.2413 16.676 23.2413L14.7249 23.3149C9.58346 23.3149 6.38077 23.1186 5.11687 22.775C4.0125 22.4682 3.30079 21.7565 2.99402 20.6521C2.8345 20.0754 2.72406 19.3023 2.65044 18.3207C2.56454 17.339 2.52773 16.4923 2.52773 15.7561L2.4541 14.7253C2.4541 12.038 2.65043 10.0624 2.99402 8.79851C3.30079 7.69414 4.0125 6.98243 5.11687 6.67566C5.6936 6.51614 6.74889 6.4057 8.36864 6.33208C9.96385 6.24618 11.4241 6.20937 12.7739 6.20937L14.7249 6.13574C19.8664 6.13574 23.0691 6.33208 24.333 6.67566C25.4374 6.98243 26.1491 7.69414 26.4559 8.79851Z" fill="white"/>
</svg>
